<?xml version="1.0" encoding="utf-8"?>
<!-- Generator: Adobe Illustrator 16.0.3, SVG Export Plug-In . SVG Version: 6.00 Build 0)  -->
<!DOCTYPE svg PUBLIC "-//W3C//DTD SVG 1.1//EN" "http://www.w3.org/Graphics/SVG/1.1/DTD/svg11.dtd">
<svg version="1.1"
	 id="Layer_1" xmlns:cc="http://web.resource.org/cc/" xmlns:dc="http://purl.org/dc/elements/1.1/" xmlns:svg="http://www.w3.org/2000/svg" xmlns:rdf="http://www.w3.org/1999/02/22-rdf-syntax-ns#"
	 xmlns="http://www.w3.org/2000/svg" xmlns:xlink="http://www.w3.org/1999/xlink" x="0px" y="0px" width="960px" height="560px"
	 viewBox="0 0 960 560" enable-background="new 0 0 960 560" xml:space="preserve">
<path fill="none" d="M297.891,506.545l1.201-0.152c-0.434,0.025-0.841,0.05-1.201,0.149V506.545z"/>
<path fill="#FFFFFF" d="M508.753,70.443c22.869,3.243,54.803-5.831,76.681,4.792C575.16,59.518,563.591,34.8,545.895,22.519
	c-0.313-1.864-2.629-0.831-3.592,0c10.57,15.391,28.17,30.132,33.544,46.726c-26.508-8.145-51.947-5.05-75.478-3.595
	c1.348,4.216,5.342,4.358,8.387,4.792H508.753z"/>
<path fill="#FFFFFF" d="M459.631,23.715c13.264,8.701,26.963,16.968,39.537,26.358C492.629,35.451,474.607,25.929,459.631,23.715z"
	/>
<path fill="#FFFFFF" d="M581.837,28.507c3.55,10.116,11.956,25.519,20.368,34.745C598.186,48.895,591.597,37.121,581.837,28.507z"/>
<path fill="#FFFFFF" d="M436.867,36.894c14.832,1.542,20.221,12.53,32.349,16.773c-4.128-9.932-18.737-19.541-33.547-22.764
	C434.671,34.291,437.366,34.008,436.867,36.894z"/>
<path fill="#FFFFFF" d="M409.316,46.481c12.802,2.374,20.595,9.754,32.349,13.179c-5.517-8.367-24.162-22.654-32.344-13.179H409.316
	z"/>
<path fill="#3F1463" d="M307.478,66.846c9.739-0.769,20.912,2.216,22.764-5.99c-19.803-2.007-39.802,4.555-53.914,8.386
	c-20.151,5.472-44.05,11.901-53.915,26.358c17.158-5.334,35.052-13.648,47.924-19.169C281.626,71.589,294.686,67.857,307.478,66.846
	z"/>
<path fill="#FFFFFF" d="M479.999,70.443c-18.251-9.836-52.684,1.271-65.896,11.981c5.371,0.579,5.352-4.235,9.585-4.792
	C439.113,81.445,461.703,67.755,479.999,70.443z"/>
<path fill="#FFFFFF" d="M511.149,76.434c-9.46,3.232-8.404,22.319,3.594,17.971C509.377,88.991,511.549,82.332,511.149,76.434z"/>
<path fill="#FFFFFF" d="M494.376,80.028c-2.903,3.37-2.851,15.815,5.99,14.377C498.17,89.825,498.619,82.586,494.376,80.028z"/>
<path fill="#FFFFFF" d="M487.188,89.61c-6.101,0.509-2.711-8.471-8.387-8.386c-3.754,0.237-1.001,6.986-3.595,8.386
	c-4.223-0.966-3.069-7.313-8.387-7.188c-0.701,2.494-2.519,3.872-3.594,5.991C464.273,96.299,485.64,100.023,487.188,89.61z"/>
<path fill="#FFFFFF" d="M454.839,82.421c-2.189,3.31-4.533,11.859,1.198,13.179c2.798-2.151,3.377-11.025,2.396-13.179H454.839z"/>
<path fill="#FFFFFF" d="M434.471,84.818c0.534,6.722-4.078,14.37,3.595,15.575c0.816-4.775,2.61-8.571,2.396-14.377
	C439.063,85.012,437.267,84.436,434.471,84.818z"/>
<path fill="#3F1463" d="M234.392,115.968c17.909-4.51,35.913-10.94,51.518-15.575c11.936-3.544,26.66-3.532,33.547-14.377h-5.991
	c-41.06,16.849-92.283,23.533-129.394,44.33c-1.935,5.277-11.115,9.62-5.991,17.972
	C190.509,132.682,209.808,122.161,234.392,115.968z"/>
<path fill="#FFFFFF" d="M422.49,89.61h-3.595c-4.495,2.636,2.055,10.586-3.594,13.179c-4.418-1.972-7.561-5.219-8.387-10.783
	c-15.358,10.516,6.906,21.266,20.367,13.179C429.329,100.64,420.424,98.034,422.49,89.61L422.49,89.61z"/>
<path fill="#FFFFFF" d="M397.335,112.374c-1.984-5.204-2.017-12.36-5.99-15.575C386.502,101.888,387.775,112.379,397.335,112.374z"
	/>
<path fill="#FFFFFF" d="M378.166,103.99c-6.315,4.575-2.653,18.376,5.991,14.377C383.784,111.947,382.729,106.214,378.166,103.99z"
	/>
<path fill="#FFFFFF" d="M362.59,112.374c-0.517,9.764,3.492,12.662,11.981,10.783C372.016,118.125,369.065,113.487,362.59,112.374z"
	/>
<path fill="#FFFFFF" d="M555.479,114.77c1.62,0.377,2.289,1.705,4.795,1.198v-3.594c-2.721-0.334-4.492,0.29-4.792,2.396H555.479z"
	/>
<linearGradient id="SVGID_1_" gradientUnits="userSpaceOnUse" x1="477.6074" y1="162.6704" x2="598.6748" y2="162.6704">
	<stop  offset="0" style="stop-color:#D45300"/>
	<stop  offset="0.125" style="stop-color:#CCCC00"/>
	<stop  offset="0.3" style="stop-color:#6DBE45"/>
	<stop  offset="0.48" style="stop-color:#0381A9"/>
	<stop  offset="0.65" style="stop-color:#6C53A3"/>
	<stop  offset="0.78" style="stop-color:#ED2290"/>
	<stop  offset="1" style="stop-color:#BF2026"/>
</linearGradient>
<path fill="url(#SVGID_1_)" d="M598.61,137.537c-7.798,0.988-8.217,9.355-16.773,9.584c-2.565-2.73,4.363-9.348-1.198-11.981
	c-6.205,2.179-3.295,13.476-10.78,14.377c-2.474,7.296,5.966,18.063-3.595,17.971c-4.715-15.633,9.888-26.138,5.991-40.735
	c-10.563,0.619-10.718,11.649-20.368,13.179c-1.263-6.056,2.73-6.854,2.396-11.981c-9.28-0.891-5.194,11.582-13.179,11.981
	c-0.063-6.852,4.643-8.936,3.594-16.773h-9.585c-3.135,2.858-3.267,8.716-8.387,9.585c-3.494-3.068,1.561-8.452-1.197-10.783
	c-8.444-0.057-8.847,7.928-13.177,11.981c-4.433-0.759-3.657-6.729-3.595-11.981c-10.66-0.946-4.692,10.531-9.584,13.179
	c-3.073-1.717-6.36-3.225-7.189-7.188c1.777-1.019,2.576-3.015,2.396-5.991c-5.854-1.909-10.708,6.61-9.585,15.575
	c-2.448-2.558-4.739,0.337-7.188,1.198c1.808,5.381,2.658,11.716,9.585,11.981c4.683-1.308,3.27-8.711,9.585-8.387
	c-0.727,2.636-3.011,8.928,1.198,9.585c3.319-5.145,12.28-15.813,17.971-10.783c-2.551,4.235-9.088,4.49-10.78,9.584
	c-0.312,3.906,1.421,5.766,4.793,5.991c3.629-3.584,9.555-11.177,16.773-7.188c-2.521,4.667-10.918,3.459-9.585,11.98
	c7.006,1.026,11.743-10.313,16.773-3.594c-0.058,5.531-7.244,3.937-5.988,10.783c4.184,0.908,9.046-3.627,11.981,0
	c0.891,3.689-3.288,2.301-2.396,5.99c3.005,1.388,4.011,4.775,8.384,4.792c5.349-3.836,9.478-8.894,16.776-10.783
	c1.165,4.907-2.966,7.675,0,10.783c7.927,1.113,10.186-9.745,15.572-7.188c-0.794,3.217-5.259,6.367-2.396,9.584
	c6.777,2.723,6.879-7.418,9.588-4.792c-2.231,10.55-10.648,14.916-14.38,23.962c4.909,4.595,5.344,2.451,9.585-1.198
	c7.949-6.839,3.382-7.244,8.387-17.972c3.027-6.492,7.009-6.402,7.188-10.783c0.197-4.768-3.59-8.389-3.592-11.981
	c0-7.73,6.714-15.982,5.99-21.566L598.61,137.537z M543.498,159.1c-0.197-4.99-0.414-9.999,2.396-11.981
	C549.363,149.071,550.013,160.315,543.498,159.1z M557.875,157.904c-5.441-0.54-0.257-8.26,0-10.783h4.792
	C561.594,151.242,559.747,154.589,557.875,157.904z M583.035,162.696c-6.595-2.032-1.206-9.834,1.195-13.179
	c1.935-0.337,2.062,1.133,3.595,1.198c0.124,5.708-3.994,7.186-4.793,11.981H583.035z"/>
<path fill="#FFFFFF" d="M354.201,121.958c1.141,4.453,2.781,8.402,8.387,8.387C362.171,125.173,359.375,122.378,354.201,121.958z"/>
<path fill="#FFFFFF" d="M634.553,124.355c-3.135-0.337-5.151,0.437-4.792,3.594C632.906,128.289,634.928,127.512,634.553,124.355z"
	/>
<path fill="#FFFFFF" d="M344.619,130.348c0.489,2.886-2.189,2.604-1.198,5.991c2.281,0.514,3.01,2.581,5.99,2.396
	C352.162,135.382,350.07,129.202,344.619,130.348z"/>
<path fill="#FFFFFF" d="M683.675,136.338c1.633-6.028-4.824-3.961-7.188-5.991C677.235,133.992,679.157,136.471,683.675,136.338z"/>
<path fill="#FFFFFF" d="M693.26,144.723c0.991-3.385-1.688-3.105-1.195-5.991h-4.793c-0.274,4.268,1.723,6.265,5.991,5.991H693.26z"
	/>
<path fill="#FFFFFF" d="M598.61,161.499c4.593-4.196,9.622-7.95,16.775-9.585c-2.171-13.726-22.339,0.844-16.773,9.585H598.61z"/>
<path d="M545.895,147.119c-2.811,1.982-2.594,6.991-2.396,11.981C550.013,160.315,549.363,149.07,545.895,147.119z"/>
<path d="M557.875,157.904c1.877-3.315,3.719-6.662,4.792-10.783h-4.792C557.625,149.645,552.434,157.362,557.875,157.904z"/>
<linearGradient id="SVGID_2_" gradientUnits="userSpaceOnUse" x1="698.0518" y1="190.8428" x2="764.584" y2="190.8428">
	<stop  offset="0" style="stop-color:#D45300"/>
	<stop  offset="0.125" style="stop-color:#CCCC00"/>
	<stop  offset="0.3" style="stop-color:#6DBE45"/>
	<stop  offset="0.48" style="stop-color:#0381A9"/>
	<stop  offset="0.65" style="stop-color:#6C53A3"/>
	<stop  offset="0.78" style="stop-color:#ED2290"/>
	<stop  offset="1" style="stop-color:#BF2026"/>
</linearGradient>
<path fill="url(#SVGID_2_)" d="M748.372,214.212c2.556,1.438,6.524,1.463,7.188,4.792c0.01,7.179,3.754,10.623,7.191,14.377
	c6.085-12.059-4.405-22.704-10.783-32.349c-13.897-21.017-33.172-39.001-49.122-52.716c-2.089-0.09-3.727,0.267-4.795,1.198v3.595
	C718.694,169.61,736.491,188.967,748.372,214.212L748.372,214.212z"/>
<path d="M584.233,149.515c-2.404,3.345-7.79,11.147-1.196,13.179c0.797-4.792,4.91-6.272,4.793-11.981
	c-1.522-0.065-1.647-1.535-3.595-1.198H584.233z"/>
<path d="M420.097,150.713c-4.373,3.849-4.511,15.019,2.396,16.773c-4.176-6.742,4.568-14.512-2.394-16.773H420.097z"/>
<path d="M438.065,162.696c-5.563-0.027-1.919-9.263-4.792-11.981C428.081,153.666,432.1,167.668,438.065,162.696z"/>
<linearGradient id="SVGID_3_" gradientUnits="userSpaceOnUse" x1="599.79" y1="199.7686" x2="656.1162" y2="199.7686">
	<stop  offset="0" style="stop-color:#D45300"/>
	<stop  offset="0.125" style="stop-color:#CCCC00"/>
	<stop  offset="0.3" style="stop-color:#6DBE45"/>
	<stop  offset="0.48" style="stop-color:#0381A9"/>
	<stop  offset="0.65" style="stop-color:#6C53A3"/>
	<stop  offset="0.78" style="stop-color:#ED2290"/>
	<stop  offset="1" style="stop-color:#BF2026"/>
</linearGradient>
<path fill="url(#SVGID_3_)" d="M617.779,211.816c3.011-18.953,22.619-28.288,38.337-37.141c-6.635-4.266-16.815,3.664-20.367,2.396
	c1.29-3.105,4.333-4.456,4.792-8.387c-4.813,0.417-13.561,3.157-15.572,2.396c5.695-4.842-4.139-3.969-1.198-8.387
	c2.354-0.359,2.376,1.618,3.594,2.396c-0.621-9.807,10.562-7.808,19.17-8.387c-12.742-10.671-29.521,4.315-39.537,10.783
	c-7.099,12.428-7.304,28.986-7.188,44.33c8.491,12.273,9.584,31.949,27.556,34.745C625.418,232.825,615.857,223.899,617.779,211.816
	L617.779,211.816z"/>
<path d="M412.908,175.873c-1.543-8.007-10.584-10.139-4.793-19.169h-4.792c0.866,3.662-1.226,4.368-1.198,7.188
	C405.702,167.908,407.364,173.831,412.908,175.873z"/>
<path fill="#632A0A" d="M476.404,160.3c-1.856,7.728-6.637,12.533-10.783,17.971c3.043,12.912,16.475,16.356,16.773,28.754
	c4.756,2.773,7.978,8.147,15.576,4.792c-1.939-5.648-8.629-6.55-8.387-14.377c18.482,3.479,34.635,9.295,51.518,14.377
	c-14.342-10.815-35.177-15.144-57.509-17.972c-2.004-1.992-4.85-3.137-4.792-7.188c17.649,0.722,29.798,6.947,44.329,10.783
	c-10.283-12.88-36.624-9.702-47.924-21.566c14.178-1.7,28.854,6.22,40.735,10.783c-4.23-13.903-32.603-9.502-34.744-21.565
	c9.602,0.382,15.707,4.261,22.764,7.188C498.395,164.663,488.76,161.119,476.404,160.3z"/>
<path d="M458.433,167.489c-1.532-0.065-1.659-1.535-3.594-1.198c-3.305,5.197-8.114,17.093,0,20.368
	c0.202-1.395,1.895-1.3,3.594-1.198C458.258,181.501,451.594,173.277,458.433,167.489z"/>
<path d="M388.946,168.687c-2.875,5.197,2.012,18.206,7.189,22.764c-2.753-6.627,0.806-10.169,2.396-15.575
	C394.098,174.72,391.792,171.43,388.946,168.687L388.946,168.687z"/>
<path d="M447.65,189.052c0.284-4.148-1.66-13.551-4.793-17.972c-3.597,2.793-2.728,10.049-3.594,15.575
	C442.358,188.416,443.731,191.074,447.65,189.052z"/>
<path fill="#FFFFFF" d="M289.506,172.279c0.305,4.091,3.03,5.756,2.396,10.783c2.004,2.117,4.014-1.063,8.387,0
	C296.578,179.584,295.399,173.574,289.506,172.279z"/>
<path d="M438.065,195.045c-3.107-6.51-4.745-12.972-1.198-20.368c-7.518-3.941-7.58,8.916-8.387,15.575
	C432.724,190.809,432.699,195.624,438.065,195.045L438.065,195.045z"/>
<path fill="#FFFFFF" d="M551.885,177.071c-2.73,3.33-0.263,9.135,3.592,9.584c4.712-1.15,0.906-6.976,0-9.584h-3.595H551.885z"/>
<path fill="#FFFFFF" d="M702.845,178.269c-12.538,11.969,8.849,33.45,23.962,25.16C726.757,187.113,719.144,178.342,702.845,178.269
	z M718.42,198.639c-9.315-0.267-7.845-11.324-13.177-15.575c7.264-2.446,17.198,6.872,13.179,15.575H718.42z"/>
<path d="M404.523,198.639c2.778-0.382,4.601,0.192,5.991,1.198c-5.637-5.596-1.785-15.039-5.991-20.368
	C398.411,184.22,402.656,192.207,404.523,198.639L404.523,198.639z"/>
<path d="M421.295,179.467c-3.619,4.119-6.64,17.991,3.594,16.773c-4.176-5.232,1.448-13.651-3.592-16.773H421.295z"/>
<path d="M385.352,198.639c1.712-3.861-4.767-8.409-2.396-16.773C372.192,182.46,378.533,198.183,385.352,198.639z"/>
<linearGradient id="SVGID_4_" gradientUnits="userSpaceOnUse" x1="626.166" y1="217.4893" x2="738.7871" y2="217.4893">
	<stop  offset="0" style="stop-color:#D45300"/>
	<stop  offset="0.125" style="stop-color:#CCCC00"/>
	<stop  offset="0.3" style="stop-color:#6DBE45"/>
	<stop  offset="0.48" style="stop-color:#0381A9"/>
	<stop  offset="0.65" style="stop-color:#6C53A3"/>
	<stop  offset="0.78" style="stop-color:#ED2290"/>
	<stop  offset="1" style="stop-color:#BF2026"/>
</linearGradient>
<path fill="url(#SVGID_4_)" d="M689.666,244.165c17.776-1.74,48.198-7.713,49.121-21.566c-11.439-8.114-31.59-9.802-45.527-4.792
	c-13.583-5.611-28.555-3.898-41.934-4.792c4.116-15.051,36.078-2.262,37.142-20.368c-13.94-18.191-49.17-9.792-57.509,7.188
	c1.295,7.685-3.56,9.22-4.793,14.377c3.003,11.387,2.891,38.015,16.776,38.339c4.094,0.095,6.34-5.399,10.78-7.189
	c8.437-3.389,21.491,0.22,35.942-1.195L689.666,244.165z"/>
<path d="M705.241,183.062c5.334,4.253,3.861,15.308,13.176,15.575c4.019-8.701-5.915-18.019-13.179-15.575H705.241z"/>
<path fill="#FFFFFF" d="M571.054,187.856c-4.521-3.35-10.142,0.484-8.384,7.188c0.929,0.267,2.361,0.033,2.396,1.198
	c5.316,0.526,6.515-3.065,5.99-8.387H571.054z"/>
<path d="M376.968,205.825c-1.603-4.787-5.704-7.076-7.189-11.981C363.986,198.07,371.866,209.04,376.968,205.825z"/>
<path fill="#FFFFFF" d="M228.404,196.243c-12.655,14.901-30.123,24.99-37.141,45.527c17.038-12.512,29.001-30.104,44.33-44.329
	C234.174,196.061,231.356,196.083,228.404,196.243z"/>
<path d="M353.003,202.231c0.787,4.406,4.418,5.968,7.189,8.387c-3.722-4.84-0.941-8.267,0-14.377
	C356.57,197.012,353.278,198.115,353.003,202.231z"/>
<path fill="#FFFFFF" d="M735.193,210.618c0.154-2.953,0.18-5.771-1.198-7.188c-4.156-0.961-4.605,1.785-8.387,1.198
	C724.909,210.523,729.552,211.072,735.193,210.618L735.193,210.618z"/>
<path d="M345.817,210.618c-0.981,4.575,2.548,4.638,4.792,5.991C350.919,212.702,349.187,210.842,345.817,210.618z"/>
<path d="M314.667,214.212c-2.923,6.5,6.754,9.742,13.179,10.783C324.868,219.985,318.825,218.041,314.667,214.212z"/>
<path d="M396.137,238.174c-1.902-7.204-0.891-13.092,1.198-19.169C388.063,218.019,387.161,238.079,396.137,238.174z"/>
<path d="M409.316,219.007c-2.613,3.776-5.239,7.541-4.793,14.377c2.267-0.267,2.644,1.35,4.793,1.198
	C405.457,229.278,415.451,222.032,409.316,219.007L409.316,219.007z"/>
<path d="M422.49,232.184c2.244-4.543,5.713-7.865,7.188-13.179C425.61,220.447,415.971,228.005,422.49,232.184z"/>
<path d="M320.654,234.58c-2.566-4.623-7.545-6.832-11.981-9.584C307.932,232.458,315.977,236.407,320.654,234.58z"/>
<path d="M381.757,240.57c-1.839-4.55,1.218-13.998-4.792-14.377C372.218,230.271,376.039,239.744,381.757,240.57z"/>
<path d="M435.669,232.184c3.157,0.362,3.932-1.66,3.595-4.792C436.118,227.032,435.345,229.051,435.669,232.184z"/>
<path d="M311.072,242.966c-1.702-6.285-8.701-7.273-13.179-10.783C297.673,240.391,302.603,243.448,311.072,242.966z"/>
<path d="M284.714,250.152v5.991c3.664,2.326,7.066,4.915,11.981,5.99C296.351,254.496,288.338,254.521,284.714,250.152z"/>
<path fill="#FFFFFF" d="M456.037,299.274c21.965,16.759,31.47-13.815,46.726-26.358c8.284-6.812,18.755-8.724,17.969-17.971
	c-33.996,2.346-50.894,21.791-64.697,44.33H456.037z"/>
<path d="M285.912,271.718c-2.231-4.955-9.602-4.775-13.179-8.387C271.837,271.418,278.064,272.367,285.912,271.718z"/>
<path fill="#FFFFFF" d="M677.685,287.293c-3.35,4.523,0.481,10.142,7.188,8.387C685.597,289.789,683.725,286.47,677.685,287.293z"/>
<path d="M682.477,323.236c-3.396-2.234-5.745-11.781-9.584-9.587c2.146,3.494,5.241,12.28,9.584,9.584V323.236z"/>
<path fill="#3F1463" d="M369.779,316.048c-11.354,13.179-18.932,54.878-5.99,67.096c-0.427-24.304,1.093-47.667,9.584-67.096
	H369.779L369.779,316.048z"/>
<path fill="#3F1463" d="M388.946,409.499c9.595-2.928,14.469-23.72,8.387-31.147c-4.443,8.735-7.187,19.169-8.387,31.15V409.499z"/>
<path fill="#FFFFFF" d="M187.668,428.669c13.838,2.151,16.791-16.679,23.962-25.16C201.566,405.131,194.927,420.282,187.668,428.669
	z"/>
<path fill="#3F1463" d="M388.946,411.896c-0.579,1.415-1.278,2.716-2.396,3.594c1.51,8.229-2.711,16.003,0,21.566
	c-3.132,5.549-6.15,24.294,2.396,27.556c-1.812-11.334,3.724-38.271,3.594-51.518C391.01,413.044,390.883,411.571,388.946,411.896z"
	/>
<path d="M216.423,431.064c-7.341,5.604-30.262,43.034-20.513,50.285c-0.247-13.678,23.925-41.359,20.513-50.295V431.064z"/>
<path d="M220.017,474.196c7.578-7.997,6.617-24.533,11.981-34.745C219.787,442.022,218.058,461.441,220.017,474.196z"/>
<path d="M217.621,443.046c-4.555,7.023-8.509,14.651-10.783,23.962c-6.714,59.264,3.872,2.519,5.99,3.595
	c0.063-11.12,4.585-17.782,7.189-26.361c-0.265-0.923-1.006-1.397-2.396-1.198V443.046z"/>
<path d="M240.382,455.026c-1.38,5.234-4.396,13.651,1.198,16.773C244.014,470.677,244.318,457.049,240.382,455.026z"/>
<path fill="none" d="M438.065,100.396c0.816-4.775,2.61-8.571,2.396-14.377c-1.391-1.006-3.213-1.58-5.991-1.198
	C435.021,91.54,430.402,99.19,438.065,100.396z"/>
<path fill="none" d="M456.037,95.601c2.798-2.151,3.377-11.025,2.396-13.179h-3.594C452.643,85.734,450.296,94.28,456.037,95.601z"
	/>
<path fill="none" d="M487.188,89.61c-6.101,0.509-2.711-8.471-8.387-8.386c-3.754,0.237-1.001,6.986-3.595,8.386
	c-4.223-0.966-3.069-7.313-8.387-7.188c-0.701,2.494-2.519,3.872-3.594,5.991C464.273,96.299,485.64,100.023,487.188,89.61z"/>
<path fill="none" d="M555.479,186.656c4.713-1.15,0.906-6.976,0-9.584h-3.592c-2.721,3.33-0.249,9.135,3.595,9.584H555.479z"/>
<path fill="none" d="M479.999,70.443c-18.251-9.836-52.684,1.271-65.896,11.981c5.371,0.579,5.352-4.235,9.585-4.792
	C439.113,81.445,461.703,67.755,479.999,70.443z"/>
<path fill="none" d="M581.837,28.507c3.55,10.116,11.956,25.519,20.368,34.745C598.186,48.895,591.597,37.121,581.837,28.507z"/>
<path fill="none" d="M555.479,114.77c1.62,0.377,2.289,1.705,4.795,1.198v-3.594c-2.721-0.334-4.492,0.29-4.792,2.396H555.479z"/>
<path fill="none" d="M567.46,103.99c4.784-4.353-0.672-17.737-7.188-10.783C558.823,100.658,562.643,102.814,567.46,103.99z"/>
<path fill="none" d="M562.667,195.045c0.929,0.267,2.361,0.033,2.396,1.198c5.321,0.526,6.52-3.065,5.988-8.387
	c-4.518-3.35-10.134,0.484-8.387,7.188H562.667z"/>
<path fill="none" d="M511.149,76.434c-9.46,3.232-8.404,22.319,3.594,17.971C509.377,88.991,511.549,82.332,511.149,76.434z"/>
<path fill="none" d="M543.498,99.195c3.749-0.245,8.796,0.809,10.783-1.198c-2.247-7.633-4.271-9.997-1.196-17.971
	c-8.562,0.838-15.675,11.04-9.585,19.169H543.498z"/>
<path fill="none" d="M525.526,76.434c-6.734,0.851-9.253,5.923-8.384,14.377c6.534,3.018,8.851,7.573,17.971,4.792
	c0.272-7.316,2.395-12.78,4.793-17.971c-6.767,1.22-7.753,8.219-14.38,9.584C524.503,82.439,527.323,78.363,525.526,76.434z"/>
<path fill="none" d="M735.193,210.618c0.154-2.953,0.18-5.771-1.198-7.188c-4.156-0.961-4.605,1.785-8.387,1.198
	C724.909,210.523,729.552,211.072,735.193,210.618L735.193,210.618z"/>
<path fill="none" d="M748.372,214.212c2.556,1.438,6.524,1.463,7.188,4.792c0.01,7.179,3.754,10.623,7.191,14.377
	c6.085-12.059-4.405-22.704-10.783-32.349c-13.897-21.017-33.172-39.001-49.122-52.716c-2.089-0.09-3.727,0.267-4.795,1.198v3.595
	C718.694,169.61,736.491,188.967,748.372,214.212L748.372,214.212z"/>
<path fill="none" d="M228.404,196.243c-12.655,14.901-30.123,24.99-37.141,45.527c17.038-12.512,29.001-30.104,44.33-44.329
	C234.174,196.061,231.356,196.083,228.404,196.243z"/>
<path fill="none" d="M702.845,178.269c-12.538,11.969,8.849,33.45,23.962,25.16C726.757,187.113,719.144,178.342,702.845,178.269z"
	/>
<path fill="none" d="M599.809,211.816c8.491,12.273,9.584,31.949,27.556,34.745c-1.937-13.735-11.504-22.664-9.585-34.745
	c3.011-18.953,22.619-28.288,38.337-37.141c-6.635-4.266-16.815,3.664-20.367,2.396c1.29-3.105,4.333-4.456,4.792-8.387
	c-4.813,0.417-13.561,3.157-15.572,2.396c5.695-4.842-4.139-3.969-1.198-8.387c2.354-0.359,2.376,1.618,3.594,2.396
	c-0.621-9.807,10.562-7.808,19.17-8.387c-12.742-10.671-29.521,4.315-39.537,10.783
	C599.908,179.917,599.709,196.475,599.809,211.816z"/>
<path fill="none" d="M598.61,137.537c-7.798,0.988-8.217,9.355-16.773,9.584c-2.565-2.73,4.363-9.348-1.198-11.981
	c-6.205,2.179-3.295,13.476-10.78,14.377c-2.474,7.296,5.966,18.063-3.595,17.971c-4.715-15.633,9.888-26.138,5.991-40.735
	c-10.563,0.619-10.718,11.649-20.368,13.179c-1.263-6.056,2.73-6.854,2.396-11.981c-9.28-0.891-5.194,11.582-13.179,11.981
	c-0.063-6.852,4.643-8.936,3.594-16.773h-9.585c-3.135,2.858-3.267,8.716-8.387,9.585c-3.494-3.068,1.561-8.452-1.197-10.783
	c-8.444-0.057-8.847,7.928-13.177,11.981c-4.433-0.759-3.657-6.729-3.595-11.981c-10.66-0.946-4.692,10.531-9.584,13.179
	c-3.073-1.717-6.36-3.225-7.189-7.188c1.777-1.019,2.576-3.015,2.396-5.991c-5.854-1.909-10.708,6.61-9.585,15.575
	c-2.448-2.558-4.739,0.337-7.188,1.198c1.808,5.381,2.658,11.716,9.585,11.981c4.683-1.308,3.27-8.711,9.585-8.387
	c-0.727,2.636-3.011,8.928,1.198,9.585c3.319-5.145,12.28-15.813,17.971-10.783c-2.551,4.235-9.088,4.49-10.78,9.584
	c-0.312,3.906,1.421,5.766,4.793,5.991c3.629-3.584,9.555-11.177,16.773-7.188c-2.521,4.667-10.918,3.459-9.585,11.98
	c7.006,1.026,11.743-10.313,16.773-3.594c-0.058,5.531-7.244,3.937-5.988,10.783c4.184,0.908,9.046-3.627,11.981,0
	c0.891,3.689-3.288,2.301-2.396,5.99c3.005,1.388,4.011,4.775,8.384,4.792c5.349-3.836,9.478-8.894,16.776-10.783
	c1.165,4.907-2.966,7.675,0,10.783c7.927,1.113,10.186-9.745,15.572-7.188c-0.794,3.217-5.259,6.367-2.396,9.584
	c6.777,2.723,6.879-7.418,9.588-4.792c-2.231,10.55-10.648,14.916-14.38,23.962c4.909,4.595,5.344,2.451,9.585-1.198
	c7.949-6.839,3.382-7.244,8.387-17.972c3.027-6.492,7.009-6.402,7.188-10.783c0.197-4.768-3.59-8.389-3.592-11.981
	c0-7.73,6.714-15.982,5.99-21.566L598.61,137.537z"/>
<path fill="none" d="M598.61,161.499c4.593-4.196,9.622-7.95,16.775-9.585c-2.171-13.726-22.339,0.844-16.773,9.585H598.61z"/>
<path fill="none" d="M693.26,144.723c0.991-3.385-1.688-3.105-1.195-5.991h-4.793c-0.274,4.268,1.723,6.265,5.991,5.991H693.26z"/>
<path fill="none" d="M683.675,136.338c1.633-6.028-4.824-3.961-7.188-5.991C677.235,133.992,679.157,136.471,683.675,136.338z"/>
<path fill="none" d="M630.959,199.837c1.295,7.685-3.56,9.22-4.793,14.377c3.003,11.387,2.891,38.015,16.776,38.339
	c4.094,0.095,6.34-5.399,10.78-7.188c8.422-3.392,21.496,0.217,35.942-1.198c17.777-1.74,48.199-7.713,49.122-21.566
	c-11.439-8.114-31.59-9.802-45.527-4.792c-13.583-5.611-28.555-3.898-41.934-4.792c4.116-15.051,36.078-2.262,37.142-20.368
	c-13.929-18.186-49.172-9.787-57.509,7.193V199.837z"/>
<path fill="none" d="M634.553,124.355c-3.135-0.337-5.151,0.437-4.792,3.594C632.906,128.289,634.928,127.512,634.553,124.355z"/>
<path fill="none" d="M308.676,174.675c0.472-5.267-1.473-8.112-5.991-8.387c-1.852,3.764-0.766,6.685,1.198,9.585
	C306.147,176.143,306.524,174.522,308.676,174.675L308.676,174.675z"/>
<path fill="none" d="M508.753,70.443c22.869,3.243,54.803-5.831,76.681,4.792C575.16,59.518,563.591,34.8,545.895,22.519
	c-0.313-1.864-2.629-0.831-3.592,0c10.57,15.391,28.17,30.132,33.544,46.726c-26.508-8.145-51.947-5.05-75.478-3.595
	c1.348,4.216,5.342,4.358,8.387,4.792H508.753z"/>
<path fill="none" d="M291.9,183.062c2.004,2.117,4.014-1.063,8.387,0c-3.709-3.477-4.888-9.487-10.783-10.783
	C289.809,176.37,292.534,178.037,291.9,183.062z"/>
<path fill="none" d="M330.239,154.307c2.788-3.958,0.018-10.643-4.792-10.783C323.875,147.406,323.792,155.043,330.239,154.307z"/>
<path fill="none" d="M320.654,162.696c4.628-1.41,2.187-11.2-3.594-9.584C315.253,155.518,316.768,162.274,320.654,162.696z"/>
<path fill="none" d="M339.827,144.723c-0.06-4.732-2.456-7.129-7.188-7.189C328.377,142.179,335.182,148.983,339.827,144.723z"/>
<path fill="none" d="M677.685,287.293c-3.35,4.523,0.481,10.142,7.188,8.387C685.597,289.789,683.725,286.47,677.685,287.293z"/>
<linearGradient id="SVGID_5_" gradientUnits="userSpaceOnUse" x1="308.3369" y1="184.0703" x2="473.2026" y2="469.6261">
	<stop  offset="0" style="stop-color:#D45300"/>
	<stop  offset="0.125" style="stop-color:#CCCC00"/>
	<stop  offset="0.3" style="stop-color:#6DBE45"/>
	<stop  offset="0.48" style="stop-color:#0381A9"/>
	<stop  offset="0.65" style="stop-color:#6C53A3"/>
	<stop  offset="0.78" style="stop-color:#ED2290"/>
	<stop  offset="1" style="stop-color:#BF2026"/>
</linearGradient>
<path fill="url(#SVGID_5_)" d="M634.553,266.926c-5.766-10.042-17.392-13.151-23.964-21.566c-6.737-8.628-8.067-21.503-14.377-31.15
	c-6.5,4.348,0.032,22.257,3.594,29.953c8.437,18.221,28.725,30.983,38.337,43.131c-25.388-5.366-37.48-34.405-51.519-55.112
	c-4.68,1.128-1.019,6.042-1.195,9.584c-24.813-13.306-52.731-19.841-82.669-22.764c22.096-9.854,50.256,7.84,69.49,10.783
	c-7.523-18.438-27.986-23.934-37.142-40.735c17.285,9.473,27.481,26.034,44.33,35.943c-8.185-15.228-21.044-27.501-38.339-40.735
	c-18.931-14.485-36.261-24.888-61.101-31.151c-10.496-8.866-5.979-23.036,2.396-31.15c-9.972-5.948-8.95,9.4-15.575,10.783
	c-1.991-2.401,0.101-8.889-2.396-10.783c-7.78,4.445-4.698,12.972-7.188,21.566c1.091,4.55,4.814,0.876,8.386,1.198
	c-3.896,8.584,2.342,15.146-3.594,19.17c-4.343-0.849-1.652-8.734-2.396-13.179c-0.307-2.489-5.264-0.327-5.99-2.396
	c1.25-10.943-0.225-15.79-3.595-23.962c-9.372,2.436-2.995,13.231-8.386,19.169c-0.362,3.157,1.659,3.931,4.792,3.594
	c-2.392,6.265,0.469,10.506,1.198,16.773c-9.115-2.332,0.135-15.79-10.783-15.575c2.519-9.308-3.08-15.655-1.198-22.764
	c-5.893-2.319-8.454,8.042-9.585,14.377c-8.718,1.527-5.142-9.238-9.584-11.981c-7.94,0.938,0.114,12.028-4.793,14.377
	c-6.741-0.05-5.057-8.521-10.782-9.584c-5.202,3.312,0.876,7.318,1.197,11.98c-4.694,2.197-9.065-4.949-13.179-7.188
	c-4.253,5.517,4.62,12.088,1.198,16.773c-6.45-0.337-9.54-4.039-10.783-9.585c-9.338,0.894-0.657,12.445-4.792,17.972
	c-6.153-0.637-9.907-3.674-11.981-8.387c-6.033,4.73,1.041,10.97,1.198,16.773c-8.584,1.395-7.012-7.368-13.179-8.387
	c-7.466,6.085,2.851,12.396,1.198,20.368c-9.298,0.911-9.83-6.944-15.575-9.585c-4.179,4.987,2.001,15.036-1.198,19.17
	c-7.141,1.15-9.76-2.224-13.179-4.792c-4.443,3.342-1.128,10.857,1.198,14.377c-5.327,4.468-8.614-3.322-11.981-4.792
	c-6.877,3.932-0.11,11.15-3.594,17.972c-5.706,0.517-6.692-3.692-10.783-4.792c-5.581,4.083,0.12,10.96,1.198,15.575
	c-5.486-0.504-7.693-4.288-13.179-4.792c-0.344,12.031,11.592,21.878,17.972,31.151c-8.214-0.974-13.099-5.272-13.179-14.377
	c-4.558-0.634-7.882-2.501-11.981-3.594c-7.039,5.684,4.518,10.533,2.396,14.377c-4.765,0.37-6.018-2.768-10.783-2.396
	c-4.373,3.821-0.197,7.686,0,13.179c-3.382-0.123-5.089-4.516-8.387-1.198c-1.76,6.552,3.058,6.53,4.792,9.585
	c-6.849,9.767,4.009,13.688,8.387,19.169c-11.422,5.884-10.623-16.187-22.764-9.584c1.867,10.114,9.31,14.649,15.575,20.368
	c-10.603,1.418-10.693-7.678-19.169-8.387c-4.496,11.484,11.769,12.046,16.773,17.972c-10.391-1.019-15.596-0.587-21.566-4.792
	c-2.072,2.721-2.891,6.693-2.396,11.98c0.933,5.708,5.416,0.422,8.386,3.592c0.801,5.194-5.561,3.228-9.584,3.595
	c-2.079,6.871,5.069,4.518,4.792,9.584c-1.86,1.732-5.591,1.601-7.189,3.595c-0.265,5.057,6.225,3.359,8.387,5.988
	c-1.902,5.516-8.693-1.306-10.783,3.594c0.696,3.694,4.331,4.453,7.188,5.988c-0.225,3.369-3.909,3.279-4.792,5.99
	c2.474,16.114-0.115,32.015-2.396,46.726c-15.38,7.78-29.343,20.465-38.339,39.54c-1.82,3.858-2.06,9.025-3.594,13.177
	c0,0-4.74,16.476-4.74,24.443s0.869,16.234,7.95,29.997c7.082,13.761,7.084,6.518,10.231,2.172
	c3.145-4.346,5.511-15.211,5.511-15.211s0,0,2.361-7.968c2.361-7.967,18.099-11.589,18.099-11.589s0.182,0.103,0.444,0.265
	c4.5-0.769,9.879-0.659,14.06-1.742c2.596-4.593-1.143-15.521,5.991-15.575c-0.717,6.308,0.888,10.294,1.198,15.575
	c1.66,2.648,8.993,3.59,10.783,2.396c-0.869-11.911-7.356-18.201-9.585-28.755c13.758,5.013,9.557,27.983,21.566,34.745
	c0.2-13.785-10.244-27.294-14.377-40.735c16.604,9.235,17.802,49.711,32.349,61.104c-0.06,0.05-0.112,0.074-0.172,0.119l2.566,2.284
	l1.198-1.206c0.514-18.939-16.02-31.061-19.169-50.319c14.252,11.703,18.792,33.124,28.754,49.124c0,0,3.132,6.727,3.884,6.917
	c0.751,0.189,2.106-5.719,2.106-5.719c5.254-17.213-17.405-32.616-20.368-45.527c14.439,10.139,21.84,27.309,30.529,43.193
	l0.145-0.032c0,0,9.403,22.002,10.908,22.192c1.505,0.189,1.505,0.187,1.505,0.187s-0.941-17.489-1.505-21.251
	c-0.018-0.117-0.012-0.229-0.018-0.345c-4.295-18.563-17.32-37.226-28.382-52.331h3.594c7.618,9.983,22.277,24.146,27.556,39.537
	c0.639,1.861,2.696,6.067,2.664,9.457c1.045,7.915,4.21,32.104,4.365,36.966c0.188,5.831,3.572,5.08,3.949,0.377
	c0.377-4.702,3.647-26.859,2.199-32.423c-5.157-20.163-18.091-47.38-33.547-64.697c-7.902-8.854-18.583-14.35-25.16-26.358
	c-6.081-11.1-15.543-23.452-17.972-35.942c-9.555-49.154,16.052-84.267,45.528-104.234c-1.268,13.108-14.739,14.013-16.773,26.358
	c0.789,3.589,2.561-1.146,4.792,0c-3.921,8.86-11.562,13.997-14.377,23.964c1.705,2.396,7.793-0.916,8.387-3.595
	c2.748,2.227,1.735,5.619,7.188,7.189c-1.822,4.967-3.033,10.548-2.396,17.971c22.002-8.95,12.071-45.308,26.358-63.498
	c-0.921-4.516,1.463-5.727,1.198-9.585c6.225-11.347,20.353-14.792,31.15-21.566c-1.23-4.877-8.112-15.268,1.198-16.773
	c-1.333,9.32,5.718,10.256,9.585,14.377c18.378-4.807,41.769-0.664,63.499-7.188c6-1.802,8.98-7.8,15.575-4.792
	c-3.974,12.8-25.367,8.182-26.358,23.962c7.84,3.896,10.129-7.186,20.368-4.792c-7.087,5.292-17.28,7.481-20.368,16.773
	c7.034-0.951,9.038-6.937,16.773-7.188c-3.896,5.688-13.009,6.16-14.377,14.377c6.135,4.882,8.127-4.61,13.179-4.793
	c0.335,7.124-6.956,6.622-8.387,11.981c14.303,11.064,23.673-8.367,34.745-17.969c7.233-6.277,17.924-9.27,23.962-13.179
	c2.496-1.617,10.379-7.473,16.773-8.387c14.335-2.052,30.766,1.423,41.936,3.595c11.295,2.196,28.435,5.077,38.337,11.981
	c11.254,7.845,18.066,23.642,31.15,31.15c9.43,5.412,19.244,7.217,27.556,13.177c14.647,10.514,24.034,27.175,39.537,32.349
	c6.999-24.284-17.706-37.32-23.964-56.311c-17.972,1.148-24.137-5.791-31.15-18.021L634.553,266.926z"/>
<path fill="none" d="M192.461,456.225c-1.975-1.013-4.026-1.949-6.096-2.867l6.096,2.87V456.225z"/>
<path fill="none" d="M459.631,23.715c13.264,8.701,26.963,16.968,39.537,26.358C492.629,35.451,474.607,25.929,459.631,23.715z"/>
<path fill="none" d="M409.316,46.481c12.802,2.374,20.595,9.754,32.349,13.179c-5.517-8.367-24.162-22.654-32.344-13.179H409.316z"
	/>
<path fill="none" d="M436.867,36.894c14.832,1.542,20.221,12.53,32.349,16.773c-4.128-9.932-18.737-19.541-33.547-22.764
	C434.671,34.291,437.366,34.008,436.867,36.894z"/>
<g>
	<linearGradient id="SVGID_6_" gradientUnits="userSpaceOnUse" x1="516.9766" y1="86.4507" x2="539.9063" y2="86.4507">
		<stop  offset="0" style="stop-color:#D45300"/>
		<stop  offset="0.125" style="stop-color:#CCCC00"/>
		<stop  offset="0.3" style="stop-color:#6DBE45"/>
		<stop  offset="0.48" style="stop-color:#0381A9"/>
		<stop  offset="0.65" style="stop-color:#6C53A3"/>
		<stop  offset="0.78" style="stop-color:#ED2290"/>
		<stop  offset="1" style="stop-color:#BF2026"/>
	</linearGradient>
	<path fill="url(#SVGID_6_)" d="M525.526,76.434c-6.734,0.851-9.253,5.923-8.384,14.377c6.534,3.018,8.851,7.573,17.971,4.792
		c0.272-7.316,2.395-12.78,4.793-17.971c-6.767,1.22-7.753,8.219-14.38,9.584C524.503,82.439,527.323,78.363,525.526,76.434z"/>
	<linearGradient id="SVGID_7_" gradientUnits="userSpaceOnUse" x1="541.2207" y1="89.6416" x2="554.2813" y2="89.6416">
		<stop  offset="0" style="stop-color:#D45300"/>
		<stop  offset="0.125" style="stop-color:#CCCC00"/>
		<stop  offset="0.3" style="stop-color:#6DBE45"/>
		<stop  offset="0.48" style="stop-color:#0381A9"/>
		<stop  offset="0.65" style="stop-color:#6C53A3"/>
		<stop  offset="0.78" style="stop-color:#ED2290"/>
		<stop  offset="1" style="stop-color:#BF2026"/>
	</linearGradient>
	<path fill="url(#SVGID_7_)" d="M543.498,99.195c3.749-0.245,8.796,0.809,10.783-1.198c-2.247-7.633-4.271-9.997-1.196-17.971
		c-8.562,0.838-15.675,11.04-9.585,19.169H543.498z"/>
	<linearGradient id="SVGID_8_" gradientUnits="userSpaceOnUse" x1="559.9609" y1="97.6152" x2="569.2764" y2="97.6152">
		<stop  offset="0" style="stop-color:#D45300"/>
		<stop  offset="0.125" style="stop-color:#CCCC00"/>
		<stop  offset="0.3" style="stop-color:#6DBE45"/>
		<stop  offset="0.48" style="stop-color:#0381A9"/>
		<stop  offset="0.65" style="stop-color:#6C53A3"/>
		<stop  offset="0.78" style="stop-color:#ED2290"/>
		<stop  offset="1" style="stop-color:#BF2026"/>
	</linearGradient>
	<path fill="url(#SVGID_8_)" d="M567.46,103.99c4.784-4.353-0.672-17.737-7.188-10.783
		C558.823,100.658,562.643,102.814,567.46,103.99z"/>
	<linearGradient id="SVGID_9_" gradientUnits="userSpaceOnUse" x1="331.2896" y1="141.8037" x2="339.8242" y2="141.8037">
		<stop  offset="0" style="stop-color:#D45300"/>
		<stop  offset="0.125" style="stop-color:#CCCC00"/>
		<stop  offset="0.3" style="stop-color:#6DBE45"/>
		<stop  offset="0.48" style="stop-color:#0381A9"/>
		<stop  offset="0.65" style="stop-color:#6C53A3"/>
		<stop  offset="0.78" style="stop-color:#ED2290"/>
		<stop  offset="1" style="stop-color:#BF2026"/>
	</linearGradient>
	<path fill="url(#SVGID_9_)" d="M332.635,137.537c-4.26,4.643,2.546,11.449,7.189,7.188
		C339.767,139.99,337.371,137.594,332.635,137.537z"/>
	<linearGradient id="SVGID_10_" gradientUnits="userSpaceOnUse" x1="324.5566" y1="148.9404" x2="331.3521" y2="148.9404">
		<stop  offset="0" style="stop-color:#D45300"/>
		<stop  offset="0.125" style="stop-color:#CCCC00"/>
		<stop  offset="0.3" style="stop-color:#6DBE45"/>
		<stop  offset="0.48" style="stop-color:#0381A9"/>
		<stop  offset="0.65" style="stop-color:#6C53A3"/>
		<stop  offset="0.78" style="stop-color:#ED2290"/>
		<stop  offset="1" style="stop-color:#BF2026"/>
	</linearGradient>
	<path fill="url(#SVGID_10_)" d="M325.447,143.524c-1.575,3.879-1.655,11.519,4.792,10.783
		C333.027,150.349,330.259,143.664,325.447,143.524z"/>
	<linearGradient id="SVGID_11_" gradientUnits="userSpaceOnUse" x1="316.3052" y1="157.8125" x2="323.0791" y2="157.8125">
		<stop  offset="0" style="stop-color:#D45300"/>
		<stop  offset="0.125" style="stop-color:#CCCC00"/>
		<stop  offset="0.3" style="stop-color:#6DBE45"/>
		<stop  offset="0.48" style="stop-color:#0381A9"/>
		<stop  offset="0.65" style="stop-color:#6C53A3"/>
		<stop  offset="0.78" style="stop-color:#ED2290"/>
		<stop  offset="1" style="stop-color:#BF2026"/>
	</linearGradient>
	<path fill="url(#SVGID_11_)" d="M317.063,153.109c-1.807,2.406-0.292,9.163,3.595,9.584
		C325.282,161.286,322.841,151.497,317.063,153.109z"/>
	<linearGradient id="SVGID_12_" gradientUnits="userSpaceOnUse" x1="301.729" y1="171.0977" x2="308.7432" y2="171.0977">
		<stop  offset="0" style="stop-color:#D45300"/>
		<stop  offset="0.125" style="stop-color:#CCCC00"/>
		<stop  offset="0.3" style="stop-color:#6DBE45"/>
		<stop  offset="0.48" style="stop-color:#0381A9"/>
		<stop  offset="0.65" style="stop-color:#6C53A3"/>
		<stop  offset="0.78" style="stop-color:#ED2290"/>
		<stop  offset="1" style="stop-color:#BF2026"/>
	</linearGradient>
	<path fill="url(#SVGID_12_)" d="M302.683,166.291c-1.852,3.764-0.766,6.685,1.198,9.585c2.266,0.267,2.643-1.351,4.792-1.198
		C309.148,169.411,307.203,166.563,302.683,166.291L302.683,166.291z"/>
	<linearGradient id="SVGID_13_" gradientUnits="userSpaceOnUse" x1="187.666" y1="416.1738" x2="211.6279" y2="416.1738">
		<stop  offset="0" style="stop-color:#D45300"/>
		<stop  offset="0.125" style="stop-color:#CCCC00"/>
		<stop  offset="0.3" style="stop-color:#6DBE45"/>
		<stop  offset="0.48" style="stop-color:#0381A9"/>
		<stop  offset="0.65" style="stop-color:#6C53A3"/>
		<stop  offset="0.78" style="stop-color:#ED2290"/>
		<stop  offset="1" style="stop-color:#BF2026"/>
	</linearGradient>
	<path fill="url(#SVGID_13_)" d="M211.628,403.509c-10.062,1.625-16.701,16.769-23.962,25.16
		C201.506,430.815,204.457,411.995,211.628,403.509z"/>
	<linearGradient id="SVGID_14_" gradientUnits="userSpaceOnUse" x1="456.0342" y1="279.5605" x2="520.7734" y2="279.5605">
		<stop  offset="0" style="stop-color:#D45300"/>
		<stop  offset="0.125" style="stop-color:#CCCC00"/>
		<stop  offset="0.3" style="stop-color:#6DBE45"/>
		<stop  offset="0.48" style="stop-color:#0381A9"/>
		<stop  offset="0.65" style="stop-color:#6C53A3"/>
		<stop  offset="0.78" style="stop-color:#ED2290"/>
		<stop  offset="1" style="stop-color:#BF2026"/>
	</linearGradient>
	<path fill="url(#SVGID_14_)" d="M456.037,299.274c21.965,16.759,31.47-13.815,46.726-26.358
		c8.284-6.812,18.755-8.724,17.969-17.971c-33.996,2.346-50.894,21.791-64.697,44.33H456.037z"/>
	<linearGradient id="SVGID_15_" gradientUnits="userSpaceOnUse" x1="343.1987" y1="134.4775" x2="350.6196" y2="134.4775">
		<stop  offset="0" style="stop-color:#D45300"/>
		<stop  offset="0.125" style="stop-color:#CCCC00"/>
		<stop  offset="0.3" style="stop-color:#6DBE45"/>
		<stop  offset="0.48" style="stop-color:#0381A9"/>
		<stop  offset="0.65" style="stop-color:#6C53A3"/>
		<stop  offset="0.78" style="stop-color:#ED2290"/>
		<stop  offset="1" style="stop-color:#BF2026"/>
	</linearGradient>
	<path fill="url(#SVGID_15_)" d="M343.421,136.338c2.281,0.514,3.01,2.581,5.99,2.396c2.751-3.35,0.659-9.53-4.792-8.387
		C345.108,133.233,342.43,132.951,343.421,136.338z"/>
	<linearGradient id="SVGID_16_" gradientUnits="userSpaceOnUse" x1="401.7183" y1="98.8159" x2="427.5908" y2="98.8159">
		<stop  offset="0" style="stop-color:#D45300"/>
		<stop  offset="0.125" style="stop-color:#CCCC00"/>
		<stop  offset="0.3" style="stop-color:#6DBE45"/>
		<stop  offset="0.48" style="stop-color:#0381A9"/>
		<stop  offset="0.65" style="stop-color:#6C53A3"/>
		<stop  offset="0.78" style="stop-color:#ED2290"/>
		<stop  offset="1" style="stop-color:#BF2026"/>
	</linearGradient>
	<path fill="url(#SVGID_16_)" d="M427.282,105.188c2.05-4.548-6.864-7.151-4.792-15.575h-3.595
		c-4.495,2.636,2.055,10.585-3.594,13.179c-4.418-1.972-7.561-5.219-8.387-10.783C391.56,102.524,413.826,113.272,427.282,105.188z"
		/>
	<linearGradient id="SVGID_17_" gradientUnits="userSpaceOnUse" x1="492.6621" y1="87.2739" x2="500.3662" y2="87.2739">
		<stop  offset="0" style="stop-color:#D45300"/>
		<stop  offset="0.125" style="stop-color:#CCCC00"/>
		<stop  offset="0.3" style="stop-color:#6DBE45"/>
		<stop  offset="0.48" style="stop-color:#0381A9"/>
		<stop  offset="0.65" style="stop-color:#6C53A3"/>
		<stop  offset="0.78" style="stop-color:#ED2290"/>
		<stop  offset="1" style="stop-color:#BF2026"/>
	</linearGradient>
	<path fill="url(#SVGID_17_)" d="M494.376,80.028c-2.903,3.37-2.851,15.815,5.99,14.377
		C498.17,89.825,498.619,82.586,494.376,80.028z"/>
	<linearGradient id="SVGID_18_" gradientUnits="userSpaceOnUse" x1="388.5913" y1="104.5864" x2="397.335" y2="104.5864">
		<stop  offset="0" style="stop-color:#D45300"/>
		<stop  offset="0.125" style="stop-color:#CCCC00"/>
		<stop  offset="0.3" style="stop-color:#6DBE45"/>
		<stop  offset="0.48" style="stop-color:#0381A9"/>
		<stop  offset="0.65" style="stop-color:#6C53A3"/>
		<stop  offset="0.78" style="stop-color:#ED2290"/>
		<stop  offset="1" style="stop-color:#BF2026"/>
	</linearGradient>
	<path fill="url(#SVGID_18_)" d="M397.335,112.374c-1.984-5.204-2.017-12.36-5.99-15.575
		C386.502,101.888,387.775,112.379,397.335,112.374z"/>
	<linearGradient id="SVGID_19_" gradientUnits="userSpaceOnUse" x1="362.5459" y1="118.0352" x2="374.5713" y2="118.0352">
		<stop  offset="0" style="stop-color:#D45300"/>
		<stop  offset="0.125" style="stop-color:#CCCC00"/>
		<stop  offset="0.3" style="stop-color:#6DBE45"/>
		<stop  offset="0.48" style="stop-color:#0381A9"/>
		<stop  offset="0.65" style="stop-color:#6C53A3"/>
		<stop  offset="0.78" style="stop-color:#ED2290"/>
		<stop  offset="1" style="stop-color:#BF2026"/>
	</linearGradient>
	<path fill="url(#SVGID_19_)" d="M374.571,123.157c-2.556-5.032-5.506-9.669-11.981-10.783
		C362.074,122.141,366.083,125.036,374.571,123.157z"/>
	<linearGradient id="SVGID_20_" gradientUnits="userSpaceOnUse" x1="354.2036" y1="126.1543" x2="362.5903" y2="126.1543">
		<stop  offset="0" style="stop-color:#D45300"/>
		<stop  offset="0.125" style="stop-color:#CCCC00"/>
		<stop  offset="0.3" style="stop-color:#6DBE45"/>
		<stop  offset="0.48" style="stop-color:#0381A9"/>
		<stop  offset="0.65" style="stop-color:#6C53A3"/>
		<stop  offset="0.78" style="stop-color:#ED2290"/>
		<stop  offset="1" style="stop-color:#BF2026"/>
	</linearGradient>
	<path fill="url(#SVGID_20_)" d="M362.59,130.348c-0.419-5.174-3.215-7.97-8.387-8.387
		C355.342,126.412,356.984,130.36,362.59,130.348z"/>
	<linearGradient id="SVGID_21_" gradientUnits="userSpaceOnUse" x1="374.9844" y1="111.5352" x2="384.1533" y2="111.5352">
		<stop  offset="0" style="stop-color:#D45300"/>
		<stop  offset="0.125" style="stop-color:#CCCC00"/>
		<stop  offset="0.3" style="stop-color:#6DBE45"/>
		<stop  offset="0.48" style="stop-color:#0381A9"/>
		<stop  offset="0.65" style="stop-color:#6C53A3"/>
		<stop  offset="0.78" style="stop-color:#ED2290"/>
		<stop  offset="1" style="stop-color:#BF2026"/>
	</linearGradient>
	<path fill="url(#SVGID_21_)" d="M384.153,118.364c-0.369-6.42-1.425-12.153-5.99-14.377
		C371.848,108.565,375.51,122.363,384.153,118.364z"/>
</g>
<path fill="#560609" d="M787.909,244.165c-5.302-2.541-8.339-12.875-14.377-10.783c6.782,8.082,13.833,15.098,5.99,26.358
	c-24.688,4.643-52.189,13.139-75.479,22.764c-3.118,4.348-10.733,9.652-17.972,5.988c1.869-4.119,2.813-9.168,2.396-15.573
	c7.982-4.009,16.987-13.352,27.556-10.783c0.854,7.244-6.295,6.482-8.384,10.783c19.746-10.204,49.199-10.706,67.093-22.764
	c-4.827-9.415-14.988-3.969-29.952-5.99c-26.436,7.513-50.143,17.751-71.886,29.952c-6.712-3.322-21.938,4.136-26.36-3.592
	c0.985-27.548,23.465-22.869,51.518-25.163c25.555-2.086,44.213-13.167,71.889-9.584c-1.283-4.476,2.973-3.415,2.396-7.188
	c-33.19-69.447-93.776-111.496-154.555-153.356c-0.354-8.242-7.094-14.43-4.792-21.566c-16.374-13.581-19.484-40.423-43.132-46.726
	c-0.549,5.336,2.838,12.899-3.595,15.575c-12.215,5.08-24.742-15.987-34.744-16.773c-7.166-0.564-14.022,6.52-21.565,5.991
	c-15.748-1.103-29.416-18.995-40.735-8.387c29.391,7.752,54.256,26.413,65.895,47.924c-17.661-15.086-34.774-30.724-56.313-41.933
	c-9.762,7.8-22.105,7.346-32.349,5.99c-4.902,9.909-17.919,10.676-28.754,5.99c-4.059,2.556,2.598,6.525,0,7.189
	c-3.927-0.067-4.578-3.407-9.585-2.396c-4.014,2.848,4.166,6.889,0,9.585c-5.232,0.838-6.75-2.037-11.981-1.198
	c-3.858,7.658-10.581,9.041-13.179,15.575c-4.381,0.709-9.46-4.041-9.585,2.396c9.917,7.256,28.62,5.726,35.943,15.575
	c-14.954-3.015-28.053-7.89-41.934-11.981c-1.71,6.502,5.554,4.031,3.594,10.783h-8.387c-4.732,10.446-21.286,9.068-23.962,21.566
	c3.127,0.467,6.572,0.616,8.387,2.396c0.931,13.676-13.671,18.728-21.566,22.764c-42.41,21.681-102.477,43.688-129.394,77.876
	c-5.656,7.181-10.126,18.089-10.783,28.754c13.993-9.572,25.427-28.083,40.735-32.349c-8.796,13.763-29.735,26.62-39.537,41.933
	c-9.133,14.268-0.938,29.503-2.396,47.924c12.448-23.897,32.775-46.299,52.716-58.707c-12.098,25.083-50.27,36.734-44.329,71.883
	c8.004-15.158,18.311-34.4,31.15-40.733c-9.093,19.265-25.36,31.35-31.15,53.915c8.194-2.202,10.933-16.204,16.773-16.773
	c-2.126,11.542-9.784,17.157-8.387,27.557c1.66,12.33,7.363,17.767,9.585,28.754c8.619,42.627-18.244,48.657-34.688,89.772
	c-2.466,1.524-3.736,9.186-3.649,13.264c0,0,3.904,44.465,14.135,64.023c10.229,19.557,17.315,26.803,24.396,12.315
	c6.135-12.55,9.323-32.684,16.204-38.319c20.937-2.069,46.154-3.852,53.093,17.093c4.748-0.786,6.807,4.697,10.361,5.117
	c8.102,7.259,33.969,55.821,50.041,53.011c14.172-2.479,15.223-41.854,15.241-52.744c0.367,0.178,0.716,0.377,1.033,0.606
	c-4.67-22.384-11.936-38.958-25.16-56.313c-25.657-33.667-66.217-54.556-49.122-109.026c8.664,0.676,7.024-8.951,13.179-10.783
	c3.851,5.666-3.974,8.361-3.594,14.377c3.916,0.255,4.842-8.644,8.387-4.792c-0.716,7.907,1.667,12.709,4.792,16.775
	c25.05-14.889,21.593-58.282,35.943-83.869c19.209-17.333,54.868-16.863,81.471-23.962c0.287,1.71,1.972,2.022,2.396,3.594
	c-12.156,19.494-6.303,46.057,20.367,45.528c22.205,29.965,40.116,0.587,55.115-15.575c7.388-7.962,19.189-17.168,27.556-21.566
	c18.307-9.622,45.538,3.934,62.302,8.387c16.878,26.783,54.219,43.152,80.27,63.497c7.67,5.99,10.516,17.37,23.964,14.377
	c8.16-18.278-4.617-32.775-9.584-45.524c23.607-21.125,57.923-31.538,94.649-39.538c2.995-6.19,6.564-11.806,8.387-19.167H787.909z
	 M191.258,241.768c7.019-20.537,24.486-30.626,37.141-45.527c2.953-0.157,5.771-0.182,7.189,1.198
	C220.257,211.664,208.295,229.256,191.258,241.768z M698.052,149.515c1.068-0.931,2.706-1.288,4.795-1.198
	c15.95,13.718,35.222,31.7,49.122,52.716c6.38,9.645,16.868,20.29,10.783,32.349c-3.438-3.754-7.181-7.196-7.191-14.377
	c-0.664-3.33-4.63-3.354-7.188-4.792c-11.894-25.247-29.68-44.602-50.319-61.103L698.052,149.515L698.052,149.515z M725.608,204.627
	c3.784,0.586,4.23-2.159,8.387-1.198c1.38,1.415,1.355,4.236,1.198,7.188C729.552,211.072,724.909,210.523,725.608,204.627
	L725.608,204.627z M702.845,178.269c16.302,0.073,23.901,8.844,23.962,25.16C711.705,211.719,690.314,190.238,702.845,178.269z
	 M692.062,138.734c-0.489,2.886,2.189,2.604,1.196,5.991c-4.267,0.274-6.266-1.722-5.988-5.991H692.062z M683.675,136.338
	c-4.525,0.135-6.442-2.344-7.188-5.991C678.857,132.375,685.322,130.311,683.675,136.338z M688.468,192.649
	c-1.063,18.104-33.022,5.314-37.142,20.368c13.377,0.894,28.348-0.816,41.934,4.792c13.938-5.009,34.088-3.324,45.527,4.792
	c-0.923,13.851-31.345,19.824-49.122,21.566c-14.446,1.415-27.521-2.194-35.942,1.198c-4.44,1.79-6.689,7.283-10.78,7.188
	c-13.883-0.325-13.773-26.952-16.776-38.339c1.233-5.157,6.086-6.692,4.793-14.377c8.337-16.976,43.58-25.375,57.509-7.184V192.649z
	 M634.553,124.355c0.362,3.157-1.659,3.934-4.792,3.594C629.411,124.794,631.433,124.018,634.553,124.355z M646.534,156.704
	c-8.606,0.579-19.791-1.42-19.17,8.387c-1.218-0.779-1.24-2.756-3.594-2.396c-2.94,4.418,6.896,3.544,1.198,8.387
	c2.014,0.761,10.763-1.977,15.572-2.396c-0.459,3.931-3.502,5.281-4.792,8.387c3.552,1.268,13.732-6.662,20.367-2.396
	c-15.718,8.854-35.326,18.188-38.337,37.141c-1.922,12.081,7.646,21.009,9.585,34.745c-17.972-2.795-19.064-22.469-27.556-34.745
	c-0.115-15.341,0.09-31.902,7.188-44.33C617.006,161.021,633.805,146.033,646.534,156.704z M615.384,151.911
	c-7.151,1.637-12.184,5.392-16.776,9.585c-5.565-8.739,14.603-23.308,16.773-9.585H615.384z M596.214,171.083
	c-0.18,4.381-4.161,4.291-7.188,10.783c-5.005,10.728-0.439,11.132-8.387,17.971c-4.24,3.649-4.675,5.793-9.585,1.198
	c3.731-9.048,12.148-13.414,14.38-23.962c-2.708-2.626-2.811,7.516-9.587,4.792c-2.863-3.218,1.603-6.368,2.396-9.585
	c-5.386-2.556-7.645,8.302-15.572,7.188c-2.965-3.107,1.166-5.875,0-10.783c-7.299,1.887-11.427,6.946-16.775,10.783
	c-4.373-0.018-5.379-3.404-8.385-4.792c-0.891-3.689,3.287-2.301,2.396-5.99c-2.936-3.627-7.798,0.909-11.981,0
	c-1.255-6.847,5.931-5.252,5.988-10.783c-5.029-6.72-9.767,4.62-16.773,3.594c-1.333-8.521,7.063-7.313,9.585-11.981
	c-7.219-3.989-13.145,3.604-16.773,7.188c-3.372-0.225-5.104-2.084-4.792-5.991c1.694-5.094,8.229-5.349,10.78-9.584
	c-5.688-5.032-14.652,5.638-17.972,10.783c-4.208-0.656-1.925-6.949-1.198-9.585c-6.314-0.324-4.902,7.079-9.585,8.387
	c-6.926-0.262-7.78-6.599-9.584-11.981c2.448-0.861,4.739-3.756,7.188-1.198c-1.123-8.966,3.731-17.485,9.584-15.576
	c0.18,2.976-0.618,4.972-2.396,5.991c0.828,3.966,4.113,5.471,7.188,7.188c4.893-2.651-1.076-14.127,9.585-13.179
	c-0.061,5.251-0.839,11.222,3.594,11.981c4.331-4.056,4.732-12.041,13.177-11.981c2.758,2.333-2.296,7.715,1.198,10.783
	c5.122-0.871,5.252-6.727,8.387-9.585h9.585c1.048,7.838-3.659,9.922-3.595,16.773c7.985-0.402,3.898-12.875,13.179-11.981
	c0.335,5.127-3.659,5.926-2.396,11.981c9.649-1.533,9.804-12.56,20.367-13.179c3.896,14.6-10.705,25.103-5.99,40.735
	c9.56,0.092,1.12-10.675,3.595-17.971c7.485-0.901,4.574-12.198,10.78-14.377c5.563,2.633-1.368,9.25,1.197,11.981
	c8.557-0.229,8.976-8.596,16.773-9.584c0.719,5.583-6.003,13.835-5.987,21.565c0,3.589,3.794,7.211,3.594,11.981H596.214z
	 M565.063,196.243c-0.035-1.166-1.468-0.931-2.396-1.198c-1.757-6.704,3.866-10.538,8.385-7.188
	c0.524,5.322-0.674,8.913-5.991,8.387H565.063z M555.479,186.656c-3.856-0.449-6.322-6.255-3.592-9.584h3.592
	C556.377,179.68,560.196,185.505,555.479,186.656z M423.688,77.632c-4.236,0.557-4.214,5.371-9.585,4.792
	c13.212-10.71,47.646-21.817,65.896-11.981C461.703,67.755,439.113,81.445,423.688,77.632L423.688,77.632z M456.037,95.601
	c-5.731-1.32-3.388-9.869-1.198-13.179h3.594C459.406,84.576,458.832,93.449,456.037,95.601z M434.471,84.818
	c2.778-0.382,4.601,0.192,5.991,1.198c0.214,5.806-1.58,9.603-2.396,14.377C430.402,99.19,435.021,91.54,434.471,84.818z
	 M466.819,82.421c5.317-0.125,4.161,6.223,8.387,7.189c2.594-1.4-0.159-8.15,3.595-8.387c5.676-0.085,2.286,8.896,8.387,8.387
	c-1.561,10.413-22.911,6.687-23.962-1.198C464.299,86.295,466.121,84.915,466.819,82.421z M514.743,94.402
	c-12.001,4.348-13.054-14.739-3.594-17.971C511.549,82.332,509.377,88.991,514.743,94.402z M525.526,87.214
	c6.624-1.365,7.613-8.364,14.38-9.585c-2.398,5.192-4.521,10.656-4.793,17.972c-9.12,2.781-11.437-1.772-17.971-4.792
	c-0.869-8.454,1.649-13.523,8.384-14.377C527.323,78.363,524.503,82.439,525.526,87.214L525.526,87.214z M554.281,97.997
	c-1.987,2.007-7.034,0.954-10.783,1.198c-6.088-8.129,1.008-18.331,9.587-19.169c-3.07,7.975-1.048,10.338,1.198,17.971H554.281z
	 M560.271,112.374v3.594c-2.506,0.507-3.173-0.821-4.795-1.198c0.299-2.106,2.071-2.73,4.792-2.396H560.271z M560.271,93.205
	c6.517-6.954,11.973,6.432,7.188,10.783C562.643,102.814,558.823,100.658,560.271,93.205z M602.205,63.252
	c-8.412-9.225-16.818-24.628-20.368-34.745C591.597,37.121,598.186,48.895,602.205,63.252z M575.847,69.242
	c-5.374-16.591-22.974-31.335-33.544-46.726c0.966-0.831,3.279-1.864,3.592,0c17.696,12.281,29.266,36.999,39.539,52.716
	c-21.878-10.623-53.812-1.55-76.681-4.792c-3.048-0.432-7.034-0.577-8.384-4.792c23.537-1.456,48.972-4.551,75.479,3.594H575.847z
	 M494.376,80.028c4.229,2.559,3.779,9.799,5.99,14.377C491.53,95.843,491.48,83.395,494.376,80.028z M499.168,50.075
	c-12.574-9.39-26.272-17.657-39.537-26.358C474.607,25.929,492.629,35.451,499.168,50.075z M435.669,30.903
	c14.81,3.225,29.419,12.834,33.547,22.764c-12.128-4.246-17.517-15.23-32.349-16.773C437.366,34.008,434.671,34.291,435.669,30.903z
	 M441.66,59.658c-11.752-3.424-19.547-10.805-32.349-13.179C417.498,37.006,436.144,51.293,441.66,59.658z M406.92,92.006
	c0.826,5.563,3.969,8.811,8.387,10.783c5.648-2.596-0.901-10.546,3.594-13.179h3.595c-2.071,8.424,6.842,11.027,4.792,15.575
	c-13.456,8.087-35.723-2.661-20.362-13.179H406.92z M391.342,96.799c3.976,3.215,4.006,10.371,5.991,15.575
	C387.775,112.379,386.502,101.888,391.342,96.799L391.342,96.799z M378.166,103.99c4.565,2.224,5.621,7.958,5.991,14.377
	C375.51,122.363,371.848,108.565,378.166,103.99z M362.59,112.374c6.475,1.113,9.425,5.751,11.981,10.783
	C366.083,125.036,362.074,122.141,362.59,112.374z M362.59,130.348c-5.606,0.013-7.249-3.936-8.387-8.387
	C359.375,122.378,362.171,125.173,362.59,130.348z M344.619,130.348c5.451-1.143,7.543,5.037,4.792,8.387
	c-2.98,0.185-3.709-1.882-5.99-2.396C342.43,132.951,345.108,133.233,344.619,130.348z M332.636,137.537
	c4.732,0.06,7.128,2.456,7.188,7.188C335.182,148.983,328.377,142.179,332.636,137.537z M325.447,143.524
	c4.81,0.14,7.581,6.824,4.792,10.783C323.792,155.043,323.875,147.406,325.447,143.524z M317.063,153.109
	c5.781-1.613,8.222,8.174,3.595,9.584C316.768,162.274,315.253,155.518,317.063,153.109z M302.683,166.291
	c4.521,0.272,6.465,3.12,5.991,8.387c-2.149-0.152-2.529,1.465-4.792,1.198C301.919,172.973,300.831,170.055,302.683,166.291z
	 M300.287,183.062c-4.371-1.063-6.383,2.117-8.387,0c0.634-5.027-2.092-6.692-2.396-10.783
	C295.4,173.574,296.578,179.584,300.287,183.062z M211.628,403.509c-7.171,8.481-10.122,27.312-23.962,25.16
	C194.927,420.282,201.566,405.131,211.628,403.509z M502.766,272.916c-15.256,12.541-24.761,43.114-46.727,26.358
	c13.804-22.537,30.684-42.001,64.695-44.33c0.799,9.26-9.685,11.157-17.972,17.971H502.766z M689.668,341.208
	c-15.503-5.175-24.891-21.836-39.537-32.349c-8.312-5.963-18.126-7.766-27.557-13.177c-13.084-7.511-19.897-23.308-31.15-31.15
	c-9.904-6.904-27.042-9.785-38.336-11.981c-11.17-2.172-27.602-5.646-41.936-3.594c-6.396,0.914-14.275,6.769-16.773,8.387
	c-6.038,3.909-16.729,6.901-23.962,13.179c-11.073,9.605-20.442,29.034-34.745,17.97c1.43-5.357,8.721-4.855,8.387-11.981
	c-5.05,0.182-7.044,9.675-13.179,4.792c1.367-8.217,10.48-8.686,14.377-14.377c-7.735,0.252-9.737,6.238-16.773,7.188
	c3.088-9.292,13.278-11.481,20.367-16.773c-10.238-2.394-12.527,8.687-20.367,4.792c0.991-15.78,22.384-11.162,26.358-23.962
	c-6.595-3.008-9.575,2.99-15.576,4.792c-21.73,6.524-45.12,2.381-63.499,7.188c-3.866-4.121-10.917-5.057-9.585-14.377
	c-9.31,1.507-2.428,11.898-1.198,16.773c-10.801,6.771-24.928,10.216-31.151,21.565c0.265,3.859-2.119,5.069-1.198,9.585
	c-14.285,18.191-4.353,54.548-26.358,63.499c-0.636-7.426,0.572-13.005,2.396-17.972c-5.454-1.57-4.443-4.962-7.188-7.188
	c-0.594,2.679-6.682,5.99-8.387,3.595c2.815-9.965,10.456-15.104,14.377-23.965c-2.231-1.146-4.003,3.59-4.792,0
	c2.034-12.343,15.505-13.249,16.773-26.358c-29.478,19.968-55.083,55.078-45.528,104.234c2.429,12.49,11.894,24.844,17.972,35.943
	c6.577,12.008,17.26,17.505,25.16,26.358c15.455,17.317,28.39,44.534,33.546,64.696c1.448,5.564-1.822,27.722-2.199,32.424
	s-3.762,5.454-3.949-0.377c-0.155-4.859-3.32-29.051-4.366-36.966c0.032-3.39-2.027-7.596-2.663-9.458
	c-5.279-15.391-19.938-29.553-27.557-39.537h-3.594c11.063,15.106,24.087,33.769,28.383,52.332c0.005,0.115,0,0.228,0.017,0.345
	c0.564,3.762,1.505,21.251,1.505,21.251s0,0-1.505-0.188c-1.505-0.187-10.907-22.192-10.907-22.192l-0.145,0.033
	c-8.688-15.883-16.089-33.056-30.529-43.194c2.965,12.912,25.622,28.317,20.368,45.527c0,0-1.353,5.906-2.107,5.719
	s-3.884-6.916-3.884-6.916c-9.961-15.997-14.502-37.418-28.754-49.125c3.147,19.26,19.684,31.38,19.169,50.32l-1.198,1.205
	l-2.566-2.283c0.06-0.045,0.112-0.07,0.172-0.12c-14.547-11.392-15.745-51.867-32.348-61.103
	c4.136,13.443,14.577,26.949,14.377,40.735c-12.011-6.762-7.808-29.733-21.566-34.745c2.229,10.554,8.716,16.841,9.585,28.754
	c-1.79,1.193-9.123,0.253-10.783-2.396c-0.31-5.282-1.915-9.268-1.198-15.575c-7.134,0.055-3.395,10.982-5.991,15.575
	c-4.183,1.086-9.562,0.976-14.06,1.742c-0.262-0.162-0.444-0.265-0.444-0.265s-15.74,3.619-18.099,11.589s-2.361,7.968-2.361,7.968
	s-2.364,10.865-5.511,15.21c-3.147,4.346-3.147,11.59-10.231-2.171c-7.082-13.764-7.95-22.027-7.95-29.997
	c0-7.971,4.74-24.444,4.74-24.444s-1.975-1.013,0,0c1.535-4.15,1.772-9.317,3.594-13.177c8.996-19.074,22.958-31.759,38.339-39.539
	c2.282-14.712,4.87-30.611,2.396-46.726c0.883-2.711,4.567-2.624,4.792-5.991c-2.858-1.534-6.492-2.293-7.189-5.987
	c2.089-4.902,8.881,1.922,10.783-3.595c-2.162-2.631-8.654-0.931-8.387-5.988c1.597-1.996,5.329-1.861,7.188-3.594
	c0.277-5.067-6.869-2.713-4.792-9.585c4.024-0.367,10.386,1.601,9.585-3.594c-2.97-3.173-7.453,2.116-8.387-3.592
	c-0.494-5.287,0.324-9.261,2.396-11.981c5.973,4.206,11.177,3.774,21.566,4.792c-5.002-5.925-21.269-6.489-16.773-17.972
	c8.477,0.709,8.566,9.808,19.169,8.387c-6.262-5.718-13.708-10.253-15.575-20.367c12.138-6.604,11.342,15.469,22.764,9.585
	c-4.375-5.479-15.235-9.402-8.386-19.169c-1.735-3.058-6.552-3.035-4.792-9.585c3.297-3.317,5.004,1.076,8.387,1.198
	c-0.197-5.496-4.373-9.36,0-13.179c4.765-0.369,6.018,2.768,10.783,2.396c2.122-3.844-9.435-8.694-2.396-14.377
	c4.098,1.093,7.423,2.96,11.981,3.594c0.08,9.105,4.964,13.406,13.179,14.377c-6.38-9.273-18.313-19.12-17.971-31.15
	c5.486,0.504,7.693,4.288,13.179,4.792c-1.078-4.618-6.779-11.492-1.198-15.575c4.093,1.101,5.077,5.307,10.783,4.792
	c3.484-6.819-3.282-14.04,3.594-17.971c3.367,1.47,6.654,9.257,11.981,4.792c-2.326-3.519-5.641-11.035-1.198-14.377
	c3.422,2.568,6.038,5.943,13.179,4.792c3.2-4.134-2.98-14.185,1.198-19.17c5.746,2.641,6.277,10.496,15.575,9.585
	c1.652-7.972-8.664-14.28-1.198-20.368c6.17,1.019,4.595,9.78,13.179,8.387c-0.157-5.806-7.231-12.046-1.198-16.773
	c2.074,4.715,5.826,7.75,11.981,8.387c4.136-5.526-4.545-17.078,4.792-17.971c1.243,5.546,4.331,9.248,10.783,9.584
	c3.422-4.685-5.451-11.257-1.198-16.773c4.113,2.239,8.483,9.385,13.179,7.188c-0.322-4.663-6.4-8.669-1.198-11.981
	c5.727,1.063,4.041,9.535,10.783,9.584c4.907-2.349-3.147-13.438,4.792-14.377c4.445,2.746,0.869,13.511,9.585,11.981
	c1.131-6.335,3.691-16.696,9.585-14.377c-1.882,7.108,3.717,13.456,1.198,22.764c10.917-0.215,1.665,13.244,10.782,15.575
	c-0.729-6.268-3.589-10.508-1.197-16.773c-3.133,0.337-5.152-0.437-4.793-3.594c5.392-5.938-0.985-16.733,8.387-19.169
	c3.37,8.172,4.845,13.019,3.595,23.962c0.726,2.069,5.684-0.092,5.99,2.396c0.744,4.448-1.947,12.331,2.396,13.179
	c5.936-4.023-0.303-10.585,3.594-19.169c-3.571-0.322-7.296,3.352-8.387-1.198c2.491-8.594-0.591-17.12,7.188-21.566
	c2.496,1.897,0.404,8.382,2.396,10.783c6.625-1.383,5.606-16.733,15.575-10.783c-8.374,8.115-12.892,22.285-2.396,31.151
	c24.841,6.262,42.173,16.666,61.101,31.15c17.298,13.234,30.154,25.507,38.339,40.735c-16.848-9.912-27.044-26.471-44.329-35.943
	c9.155,16.801,29.618,22.299,37.141,40.735c-19.234-2.942-47.395-20.637-69.489-10.783c29.938,2.923,57.855,9.458,82.669,22.764
	c0.177-3.539-3.484-8.457,1.195-9.584c14.038,20.707,26.131,49.746,51.518,55.112c-9.614-12.148-29.899-24.91-38.336-43.131
	c-3.564-7.695-10.097-25.604-3.595-29.953c6.308,9.647,7.641,22.522,14.378,31.151c6.571,8.414,18.198,11.524,23.964,21.565
	c7.019,12.226,13.177,19.177,31.148,17.972c6.265,19.044,30.976,32.073,23.962,56.359L689.668,341.208z M684.876,295.68
	c-6.707,1.755-10.538-3.866-7.188-8.387C683.728,286.47,685.6,289.789,684.876,295.68z"/>
</svg>
